# xmcd
#
# Track frame offsets:
#  150
#  13565
#  26375
#  39002
#  50147
#  61767
#  72820
#  85695
#  97960
#  108362
#  118777
#  131770
#  143477
#  155865
#  167312
#  180337
#  191930
#  205800
#  217775
#  232105
#
# Disc length: 3279 seconds
#
# Revision: 5
# Processed by: cddbd v1.5.2PL0 Copyright (c) Steve Scherf et al.
# Submitted via: Collectorz.com_Music_Collector 6.11
#
DISCID=040ccd14
DTITLE=Ray Charles - Rocking Chair Blues
DYEAR=1994
DGENRE=Blues
TTITLE0=Alone In The City
TTITLE1=Can Anyone Ask For More
TTITLE2=Rocking Chair Blues
TTITLE3=Let's Have A Ball
TTITLE4=How Long
TTITLE5=A Sentimental Blues
TTITLE6=You Always Miss The Water (When The Well Runs Dry)
TTITLE7=Goin' Down SLow
TTITLE8=Now She's Gone
TTITLE9=Ain't That Fine
TTITLE10=Don't Put All Your Dreams In One Basket
TTITLE11=Ray Charles Blues
TTITLE12=Honey Honey
TTITLE13=She's On The Ball
TTITLE14=Baby Won't You Please Come Home
TTITLE15=If I Give You My Love
TTITLE16=This Love Of Mine
TTITLE17=Can't You See Darling
TTITLE18=Some Day (Blues Is My Middle Name)
TTITLE19=I'm Going To Drown Myself
EXTD=
EXTT0=
EXTT1=
EXTT2=
EXTT3=
EXTT4=
EXTT5=
EXTT6=
EXTT7=
EXTT8=
EXTT9=
EXTT10=
EXTT11=
EXTT12=
EXTT13=
EXTT14=
EXTT15=
EXTT16=
EXTT17=
EXTT18=
EXTT19=
PLAYORDER=
